# xmcd
#
# Track frame offsets:
#	150
#	17377
#	35833
#	52429
#	71179
#
# Disc length: 1163 seconds
#
# Revision: 2
# Processed by: cddbd v1.5.2PL0 Copyright (c) Steve Scherf et al.
# Submitted via: EasyCDDAExtractor 11.9.9.666
#
DISCID=48048905
DTITLE=Keinosyd‰n - Lauri
DYEAR=1900
DGENRE=Other
TTITLE0=Lauri
TTITLE1=Pime‰‰
TTITLE2=Edess‰ rannan n‰‰n
TTITLE3=Saan tulla
TTITLE4=Matkalla luoksesi
EXTD=
EXTT0=
EXTT1=
EXTT2=
EXTT3=
EXTT4=
PLAYORDER=
